# xmcd
#
# Track frame offsets: 
#        150
#        26612
#        36526
#        54296
#        77397
#        92543
#        104186
#        118862
#        132497
#        146113
#        157772
#        173207
#        186132
#        196925
#        212423
#        229265
#        238453
#        254019
#        274262
#        285577
#        299362
#        312354
#
# Disc length: 4419 seconds
#
# Revision: 0
# Processed by: cddbd v1.5.2PL0 Copyright (c) Steve Scherf et al.
# Submitted via: ExactAudioCopy v0.99pb5
#
DISCID=4f114116
DTITLE=Elvis Presley  - FTD 72-2 - Elvis Sings Memphis, Tennessee - CD
DTITLE=2  FLAC
DYEAR=1900
DGENRE=
TTITLE0=Echoes Of Love - takes 2,4,5,3
TTITLE1=Please Don´t Drag That String Around - take 2
TTITLE2=Please Don´t Drag That String Around - takes 3,4,5
TTITLE3=(You´re The) Devil In Disguise - takes 1,2,4,5,6(M)
TTITLE4=Never Ending - takes 2 and 3(M)
TTITLE5=Witchcraft - take 2
TTITLE6=Finders Keepers, Losers Weepers - takes 2 and 3(M)
TTITLE7=Love Me Tonight - takes 2,3,4
TTITLE8=Love Me Tonight - takes 6 and 5
TTITLE9=Memphis, Tennessee - take 1
TTITLE10=Western Union - takes 2 and 3
TTITLE11=Slowly But Surely - takes 2,3,4
TTITLE12=Blue River - takes 1 and 2
TTITLE13=Ask Me - takes 3 and 4
TTITLE14=Ask Me - takes 5 and 6(alt. Master)
TTITLE15=Echoes Of Love - takes 6 and 7
TTITLE16=Echoes Of Love - takes 9 and 8(alt. Master)
TTITLE17=Memphis, Tennessee - takes 2,3,5
TTITLE18=Ask Me - take 3
TTITLE19=Ask Me - takes 4,6,7
TTITLE20=Ask Me - takes 8,10,9
TTITLE21=It Hurts Me - takes 2,3,4,5(M)
EXTD=
EXTT0=
EXTT1=
EXTT2=
EXTT3=
EXTT4=
EXTT5=
EXTT6=
EXTT7=
EXTT8=
EXTT9=
EXTT10=
EXTT11=
EXTT12=
EXTT13=
EXTT14=
EXTT15=
EXTT16=
EXTT17=
EXTT18=
EXTT19=
EXTT20=
EXTT21=
PLAYORDER=
